<svg xmlns="http://www.w3.org/2000/svg" xmlns:xlink="http://www.w3.org/1999/xlink" contentStyleType="text/css" height="807px" preserveAspectRatio="none" style="width:733px;height:807px;background:#FFFFFF;" version="1.1" viewBox="0 0 733 807" width="733px" zoomAndPan="magnify"><defs/><g><!--class AbstractMessage--><g id="elem_AbstractMessage"><rect codeLine="1" fill="#F1F1F1" height="64.2969" id="AbstractMessage" rx="2.5" ry="2.5" style="stroke:#181818;stroke-width:0.5;" width="287.1738" x="7" y="521.12"/><ellipse cx="86.2729" cy="537.12" fill="#B4A7E5" rx="11" ry="11" style="stroke:#181818;stroke-width:1.0;"/><path d="M82.1948,532.8856 L82.1948,530.7294 L89.5854,530.7294 L89.5854,532.8856 L87.1167,532.8856 L87.1167,540.9637 L89.5854,540.9637 L89.5854,543.12 L82.1948,543.12 L82.1948,540.9637 L84.6636,540.9637 L84.6636,532.8856 L82.1948,532.8856 Z " fill="#000000"/><text fill="#000000" font-family="sans-serif" font-size="14" font-style="italic" lengthAdjust="spacing" textLength="120.1279" x="106.7729" y="541.9667">AbstractMessage</text><line style="stroke:#181818;stroke-width:0.5;" x1="8" x2="293.1738" y1="553.12" y2="553.12"/><line style="stroke:#181818;stroke-width:0.5;" x1="8" x2="293.1738" y1="561.12" y2="561.12"/><ellipse cx="18" cy="574.7684" fill="#84BE84" rx="3" ry="3" style="stroke:#038048;stroke-width:1.0;"/><text fill="#000000" font-family="sans-serif" font-size="14" lengthAdjust="spacing" textLength="261.1738" x="27" y="578.1151">payload(): Record&lt;string, unknown&gt;</text></g><!--class AbstractListener--><g id="elem_AbstractListener"><rect codeLine="5" fill="#F1F1F1" height="80.5938" id="AbstractListener" rx="2.5" ry="2.5" style="stroke:#181818;stroke-width:0.5;" width="396.918" x="138.13" y="355.08"/><ellipse cx="274.7906" cy="371.08" fill="#B4A7E5" rx="11" ry="11" style="stroke:#181818;stroke-width:1.0;"/><path d="M270.7125,366.8456 L270.7125,364.6894 L278.1031,364.6894 L278.1031,366.8456 L275.6344,366.8456 L275.6344,374.9237 L278.1031,374.9237 L278.1031,377.08 L270.7125,377.08 L270.7125,374.9237 L273.1813,374.9237 L273.1813,366.8456 L270.7125,366.8456 Z " fill="#000000"/><text fill="#000000" font-family="sans-serif" font-size="14" font-style="italic" lengthAdjust="spacing" textLength="115.0967" x="295.2906" y="375.9267">AbstractListener</text><line style="stroke:#181818;stroke-width:0.5;" x1="139.13" x2="534.048" y1="387.08" y2="387.08"/><line style="stroke:#181818;stroke-width:0.5;" x1="139.13" x2="534.048" y1="395.08" y2="395.08"/><ellipse cx="149.13" cy="408.7284" fill="#84BE84" rx="3" ry="3" style="stroke:#038048;stroke-width:1.0;"/><text fill="#000000" font-family="sans-serif" font-size="14" lengthAdjust="spacing" textLength="73.0557" x="158.13" y="412.0751">id(): string</text><ellipse cx="149.13" cy="425.0253" fill="#84BE84" rx="3" ry="3" style="stroke:#038048;stroke-width:1.0;"/><text fill="#000000" font-family="sans-serif" font-size="14" lengthAdjust="spacing" textLength="370.918" x="158.13" y="428.372">update(message: AbstractMessage): Promise&lt;void&gt;</text></g><!--class AbstractPublisher--><g id="elem_AbstractPublisher"><rect codeLine="10" fill="#F1F1F1" height="96.8906" id="AbstractPublisher" rx="2.5" ry="2.5" style="stroke:#181818;stroke-width:0.5;" width="451.2432" x="244.97" y="7"/><ellipse cx="404.6985" cy="23" fill="#B4A7E5" rx="11" ry="11" style="stroke:#181818;stroke-width:1.0;"/><path d="M400.6204,18.7656 L400.6204,16.6094 L408.011,16.6094 L408.011,18.7656 L405.5423,18.7656 L405.5423,26.8438 L408.011,26.8438 L408.011,29 L400.6204,29 L400.6204,26.8438 L403.0891,26.8438 L403.0891,18.7656 L400.6204,18.7656 Z " fill="#000000"/><text fill="#000000" font-family="sans-serif" font-size="14" font-style="italic" lengthAdjust="spacing" textLength="123.2861" x="425.1985" y="27.8467">AbstractPublisher</text><line style="stroke:#181818;stroke-width:0.5;" x1="245.97" x2="695.2132" y1="39" y2="39"/><line style="stroke:#181818;stroke-width:0.5;" x1="245.97" x2="695.2132" y1="47" y2="47"/><ellipse cx="255.97" cy="60.6484" fill="#84BE84" rx="3" ry="3" style="stroke:#038048;stroke-width:1.0;"/><text fill="#000000" font-family="sans-serif" font-size="14" lengthAdjust="spacing" textLength="388.7393" x="264.97" y="63.9951">addListener(listener: AbstractListener): Promise&lt;void&gt;</text><ellipse cx="255.97" cy="76.9453" fill="#84BE84" rx="3" ry="3" style="stroke:#038048;stroke-width:1.0;"/><text fill="#000000" font-family="sans-serif" font-size="14" lengthAdjust="spacing" textLength="415.8574" x="264.97" y="80.292">removeListener(listener: AbstractListener): Promise&lt;void&gt;</text><ellipse cx="255.97" cy="93.2422" fill="#84BE84" rx="3" ry="3" style="stroke:#038048;stroke-width:1.0;"/><text fill="#000000" font-family="sans-serif" font-size="14" lengthAdjust="spacing" textLength="425.2432" x="264.97" y="96.5889">notifyListeners(message: AbstractMessage): Promise&lt;void&gt;</text></g><!--class Message--><g id="elem_Message"><rect codeLine="20" fill="#F1F1F1" height="113.1875" id="Message" rx="2.5" ry="2.5" style="stroke:#181818;stroke-width:0.5;" width="310.2383" x="103.47" y="686.86"/><ellipse cx="223.6595" cy="702.86" fill="#ADD1B2" rx="11" ry="11" style="stroke:#181818;stroke-width:1.0;"/><path d="M226.6282,708.5006 Q226.0501,708.7975 225.4095,708.9381 Q224.7688,709.0944 224.0657,709.0944 Q221.5657,709.0944 220.2376,707.4537 Q218.9251,705.7975 218.9251,702.6725 Q218.9251,699.5475 220.2376,697.8912 Q221.5657,696.235 224.0657,696.235 Q224.7688,696.235 225.4095,696.3912 Q226.0657,696.5475 226.6282,696.8444 L226.6282,699.5631 Q226.0032,698.985 225.4095,698.7194 Q224.8157,698.4381 224.1907,698.4381 Q222.847,698.4381 222.1595,699.5162 Q221.472,700.5787 221.472,702.6725 Q221.472,704.7662 222.1595,705.8444 Q222.847,706.9069 224.1907,706.9069 Q224.8157,706.9069 225.4095,706.6412 Q226.0032,706.36 226.6282,705.7819 L226.6282,708.5006 Z " fill="#000000"/><text fill="#000000" font-family="sans-serif" font-size="14" lengthAdjust="spacing" textLength="61.3594" x="244.1595" y="707.7067">Message</text><line style="stroke:#181818;stroke-width:0.5;" x1="104.47" x2="412.7083" y1="718.86" y2="718.86"/><rect fill="none" height="6" style="stroke:#C82930;stroke-width:1.0;" width="6" x="111.47" y="729.5084"/><text fill="#000000" font-family="sans-serif" font-size="14" lengthAdjust="spacing" textLength="111.8291" x="123.47" y="735.8551">#subject: string</text><rect fill="none" height="6" style="stroke:#C82930;stroke-width:1.0;" width="6" x="111.47" y="745.8053"/><text fill="#000000" font-family="sans-serif" font-size="14" lengthAdjust="spacing" textLength="114.6865" x="123.47" y="752.152">#content: string</text><line style="stroke:#181818;stroke-width:0.5;" x1="104.47" x2="412.7083" y1="759.4537" y2="759.4537"/><ellipse cx="114.47" cy="773.1022" fill="#84BE84" rx="3" ry="3" style="stroke:#038048;stroke-width:1.0;"/><text fill="#000000" font-family="sans-serif" font-size="14" lengthAdjust="spacing" textLength="284.2383" x="123.47" y="776.4489">Message(subject: string, content: string)</text><ellipse cx="114.47" cy="789.3991" fill="#84BE84" rx="3" ry="3" style="stroke:#038048;stroke-width:1.0;"/><text fill="#000000" font-family="sans-serif" font-size="14" lengthAdjust="spacing" textLength="261.1738" x="123.47" y="792.7457">payload(): Record&lt;string, unknown&gt;</text></g><!--class Listener--><g id="elem_Listener"><rect codeLine="27" fill="#F1F1F1" height="113.1875" id="Listener" rx="2.5" ry="2.5" style="stroke:#181818;stroke-width:0.5;" width="396.918" x="329.13" y="496.67"/><ellipse cx="495.1749" cy="512.67" fill="#ADD1B2" rx="11" ry="11" style="stroke:#181818;stroke-width:1.0;"/><path d="M498.1437,518.3106 Q497.5655,518.6075 496.9249,518.7481 Q496.2843,518.9044 495.5812,518.9044 Q493.0812,518.9044 491.753,517.2638 Q490.4405,515.6075 490.4405,512.4825 Q490.4405,509.3575 491.753,507.7012 Q493.0812,506.045 495.5812,506.045 Q496.2843,506.045 496.9249,506.2012 Q497.5812,506.3575 498.1437,506.6544 L498.1437,509.3731 Q497.5187,508.795 496.9249,508.5294 Q496.3312,508.2481 495.7062,508.2481 Q494.3624,508.2481 493.6749,509.3262 Q492.9874,510.3887 492.9874,512.4825 Q492.9874,514.5763 493.6749,515.6544 Q494.3624,516.7169 495.7062,516.7169 Q496.3312,516.7169 496.9249,516.4513 Q497.5187,516.17 498.1437,515.5919 L498.1437,518.3106 Z " fill="#000000"/><text fill="#000000" font-family="sans-serif" font-size="14" lengthAdjust="spacing" textLength="56.3281" x="515.6749" y="517.5167">Listener</text><line style="stroke:#181818;stroke-width:0.5;" x1="330.13" x2="725.048" y1="528.67" y2="528.67"/><rect fill="none" height="6" style="stroke:#C82930;stroke-width:1.0;" width="6" x="337.13" y="539.3184"/><text fill="#000000" font-family="sans-serif" font-size="14" lengthAdjust="spacing" textLength="73.8623" x="349.13" y="545.6651">#id: string</text><line style="stroke:#181818;stroke-width:0.5;" x1="330.13" x2="725.048" y1="552.9669" y2="552.9669"/><ellipse cx="340.13" cy="566.6153" fill="#84BE84" rx="3" ry="3" style="stroke:#038048;stroke-width:1.0;"/><text fill="#000000" font-family="sans-serif" font-size="14" lengthAdjust="spacing" textLength="129.3838" x="349.13" y="569.962">Listener(id: string)</text><ellipse cx="340.13" cy="582.9122" fill="#84BE84" rx="3" ry="3" style="stroke:#038048;stroke-width:1.0;"/><text fill="#000000" font-family="sans-serif" font-size="14" lengthAdjust="spacing" textLength="73.0557" x="349.13" y="586.2589">id(): string</text><ellipse cx="340.13" cy="599.2091" fill="#84BE84" rx="3" ry="3" style="stroke:#038048;stroke-width:1.0;"/><text fill="#000000" font-family="sans-serif" font-size="14" lengthAdjust="spacing" textLength="370.918" x="349.13" y="602.5557">update(message: AbstractMessage): Promise&lt;void&gt;</text></g><!--class Publisher--><g id="elem_Publisher"><rect codeLine="34" fill="#F1F1F1" height="113.1875" id="Publisher" rx="2.5" ry="2.5" style="stroke:#181818;stroke-width:0.5;" width="451.2432" x="244.97" y="164.89"/><ellipse cx="434.0828" cy="180.89" fill="#ADD1B2" rx="11" ry="11" style="stroke:#181818;stroke-width:1.0;"/><path d="M437.0515,186.5306 Q436.4734,186.8275 435.8328,186.9681 Q435.1922,187.1244 434.489,187.1244 Q431.989,187.1244 430.6609,185.4838 Q429.3484,183.8275 429.3484,180.7025 Q429.3484,177.5775 430.6609,175.9213 Q431.989,174.265 434.489,174.265 Q435.1922,174.265 435.8328,174.4213 Q436.489,174.5775 437.0515,174.8744 L437.0515,177.5931 Q436.4265,177.015 435.8328,176.7494 Q435.239,176.4681 434.614,176.4681 Q433.2703,176.4681 432.5828,177.5463 Q431.8953,178.6088 431.8953,180.7025 Q431.8953,182.7963 432.5828,183.8744 Q433.2703,184.9369 434.614,184.9369 Q435.239,184.9369 435.8328,184.6713 Q436.4265,184.39 437.0515,183.8119 L437.0515,186.5306 Z " fill="#000000"/><text fill="#000000" font-family="sans-serif" font-size="14" lengthAdjust="spacing" textLength="64.5176" x="454.5828" y="185.7367">Publisher</text><line style="stroke:#181818;stroke-width:0.5;" x1="245.97" x2="695.2132" y1="196.89" y2="196.89"/><rect fill="none" height="6" style="stroke:#C82930;stroke-width:1.0;" width="6" x="252.97" y="207.5384"/><text fill="#000000" font-family="sans-serif" font-size="14" lengthAdjust="spacing" textLength="242.1563" x="264.97" y="213.8851">#listeners: Set&lt;AbstractListener&gt;</text><line style="stroke:#181818;stroke-width:0.5;" x1="245.97" x2="695.2132" y1="221.1869" y2="221.1869"/><ellipse cx="255.97" cy="234.8353" fill="#84BE84" rx="3" ry="3" style="stroke:#038048;stroke-width:1.0;"/><text fill="#000000" font-family="sans-serif" font-size="14" lengthAdjust="spacing" textLength="388.7393" x="264.97" y="238.182">addListener(listener: AbstractListener): Promise&lt;void&gt;</text><ellipse cx="255.97" cy="251.1322" fill="#84BE84" rx="3" ry="3" style="stroke:#038048;stroke-width:1.0;"/><text fill="#000000" font-family="sans-serif" font-size="14" lengthAdjust="spacing" textLength="415.8574" x="264.97" y="254.4789">removeListener(listener: AbstractListener): Promise&lt;void&gt;</text><ellipse cx="255.97" cy="267.4291" fill="#84BE84" rx="3" ry="3" style="stroke:#038048;stroke-width:1.0;"/><text fill="#000000" font-family="sans-serif" font-size="14" lengthAdjust="spacing" textLength="425.2432" x="264.97" y="270.7757">notifyListeners(message: AbstractMessage): Promise&lt;void&gt;</text></g><!--reverse link AbstractMessage to Message--><g id="link_AbstractMessage_Message"><path codeLine="16" d="M177.6236,601.3794 C193.3636,628.7894 207.57,653.57 226.46,686.47 " fill="none" id="AbstractMessage-backto-Message" style="stroke:#181818;stroke-width:1.0;"/><polygon fill="none" points="168.66,585.77,172.4205,604.3673,182.8267,598.3916,168.66,585.77" style="stroke:#181818;stroke-width:1.0;"/></g><!--reverse link AbstractListener to Listener--><g id="link_AbstractListener_Listener"><path codeLine="17" d="M399.224,447.5027 C421.654,465.8127 434.73,476.48 459.17,496.43 " fill="none" id="AbstractListener-backto-Listener" style="stroke:#181818;stroke-width:1.0;"/><polygon fill="none" points="385.28,436.12,395.4297,452.1507,403.0182,442.8547,385.28,436.12" style="stroke:#181818;stroke-width:1.0;"/></g><!--reverse link AbstractPublisher to Publisher--><g id="link_AbstractPublisher_Publisher"><path codeLine="18" d="M470.59,122.34 C470.59,141.16 470.59,144.89 470.59,164.44 " fill="none" id="AbstractPublisher-backto-Publisher" style="stroke:#181818;stroke-width:1.0;"/><polygon fill="none" points="470.59,104.34,464.59,122.34,476.59,122.34,470.59,104.34" style="stroke:#181818;stroke-width:1.0;"/></g><!--link Publisher to Listener--><g id="link_Publisher_Listener"><path codeLine="41" d="M514.84,278.58 C529.91,301.04 544.89,328 552.59,355.08 C565.84,401.72 558.5654,450.7624 547.9054,490.7524 " fill="none" id="Publisher-to-Listener" style="stroke:#181818;stroke-width:1.0;"/><polygon fill="#181818" points="546.36,496.55,552.5432,488.884,547.6479,491.7187,544.8131,486.8234,546.36,496.55" style="stroke:#181818;stroke-width:1.0;"/><text fill="#000000" font-family="sans-serif" font-size="13" lengthAdjust="spacing" textLength="47.8613" x="559.59" y="399.9469">notifies</text></g><!--link Publisher to AbstractListener--><g id="link_Publisher_AbstractListener"><path codeLine="42" d="M427.08,278.3 C407.67,303.19 388.9396,327.2285 371.2696,349.8885 " fill="none" id="Publisher-to-AbstractListener" style="stroke:#181818;stroke-width:1.0;"/><polygon fill="#181818" points="367.58,354.62,376.2687,349.9825,370.6546,350.6771,369.96,345.063,367.58,354.62" style="stroke:#181818;stroke-width:1.0;"/><text fill="#000000" font-family="sans-serif" font-size="13" lengthAdjust="spacing" textLength="92.0474" x="404.59" y="321.1469">adds/removes</text></g><!--link Listener to Message--><g id="link_Listener_Message"><path codeLine="43" d="M447.61,610.22 C413.23,634.27 378.0367,658.8911 343.6367,682.9511 " fill="none" id="Listener-to-Message" style="stroke:#181818;stroke-width:1.0;"/><polygon fill="#181818" points="338.72,686.39,348.3877,684.5095,342.8173,683.5243,343.8025,677.9539,338.72,686.39" style="stroke:#181818;stroke-width:1.0;"/><text fill="#000000" font-family="sans-serif" font-size="13" lengthAdjust="spacing" textLength="52.5776" x="401.59" y="652.9269">updates</text></g><!--SRC=[rLB1QiCm3BtxAmov9BHcTnC2kwzGkYzmRBNpbjZ5SZhAjdzV6iTfwZ3OnYwxMTQJdlIUjF7Wza82lQ_HEo7z1X350UWReNHr5EV62fKNdEv0MgVA7gJDOKqxysBigwd81o5wqUH1emS3BdJHGuDGUOcxen8UyZOmyPIwnswTRJL2UR9QVK6nxUf6urFa44f5qhmP7tmnpw9rN-cWjIVuPR6nNk_F4O4_sYbLl7ndZ8u1MIWvP6D4bYeC-IaaH3O2aSxTP1bszJD8F_E2PTBsqfhvtseioXFucYROulid4gQvEGkMQJLddHouVXT_T3s1_VPYM1QTHauVmPUfujK_FQlhcenLa-IS3ZqrO098n-6qtndlmlX89iiks4qS8tY0dm00]--></g></svg>