<svg xmlns="http://www.w3.org/2000/svg" xmlns:xlink="http://www.w3.org/1999/xlink" contentStyleType="text/css" height="548px" preserveAspectRatio="none" style="width:255px;height:548px;background:#FFFFFF;" version="1.1" viewBox="0 0 255 548" width="255px" zoomAndPan="magnify"><defs/><g><ellipse cx="114.1553" cy="20" fill="#222222" rx="10" ry="10" style="stroke:#222222;stroke-width:1.0;"/><rect fill="#F1F1F1" height="33.9688" rx="12.5" ry="12.5" style="stroke:#181818;stroke-width:0.5;" width="125.0879" x="51.6113" y="50"/><text fill="#000000" font-family="sans-serif" font-size="12" lengthAdjust="spacing" textLength="105.0879" x="61.6113" y="71.1387">Publisher created</text><rect fill="#F1F1F1" height="33.9688" rx="12.5" ry="12.5" style="stroke:#181818;stroke-width:0.5;" width="124.3203" x="51.9951" y="103.9688"/><text fill="#000000" font-family="sans-serif" font-size="12" lengthAdjust="spacing" textLength="104.3203" x="61.9951" y="125.1074">Listeners created</text><rect fill="#F1F1F1" height="33.9688" rx="12.5" ry="12.5" style="stroke:#181818;stroke-width:0.5;" width="172.0742" x="28.1182" y="157.9375"/><text fill="#000000" font-family="sans-serif" font-size="12" lengthAdjust="spacing" textLength="152.0742" x="38.1182" y="179.0762">Publisher adds Listener A</text><rect fill="#F1F1F1" height="33.9688" rx="12.5" ry="12.5" style="stroke:#181818;stroke-width:0.5;" width="172.0977" x="28.1064" y="211.9063"/><text fill="#000000" font-family="sans-serif" font-size="12" lengthAdjust="spacing" textLength="152.0977" x="38.1064" y="233.0449">Publisher adds Listener B</text><rect fill="#F1F1F1" height="33.9688" rx="12.5" ry="12.5" style="stroke:#181818;stroke-width:0.5;" width="122.3809" x="52.9648" y="265.875"/><text fill="#000000" font-family="sans-serif" font-size="12" lengthAdjust="spacing" textLength="102.3809" x="62.9648" y="287.0137">Message created</text><rect fill="#F1F1F1" height="33.9688" rx="12.5" ry="12.5" style="stroke:#181818;stroke-width:0.5;" width="199.4785" x="14.416" y="319.8438"/><text fill="#000000" font-family="sans-serif" font-size="12" lengthAdjust="spacing" textLength="179.4785" x="24.416" y="340.9824">Publisher notifies all Listeners</text><rect fill="#F1F1F1" height="33.9688" rx="12.5" ry="12.5" style="stroke:#181818;stroke-width:0.5;" width="206.3105" x="11" y="417.8125"/><text fill="#000000" font-family="sans-serif" font-size="12" lengthAdjust="spacing" textLength="186.3105" x="21" y="438.9512">Listener updates with Message</text><polygon fill="#F1F1F1" points="114.1553,373.8125,126.1553,385.8125,114.1553,397.8125,102.1553,385.8125,114.1553,373.8125" style="stroke:#181818;stroke-width:0.5;"/><polygon fill="#F1F1F1" points="55.4438,471.7813,172.8667,471.7813,184.8667,483.7813,172.8667,495.7813,55.4438,495.7813,43.4438,483.7813,55.4438,471.7813" style="stroke:#181818;stroke-width:0.5;"/><text fill="#000000" font-family="sans-serif" font-size="11" lengthAdjust="spacing" textLength="117.4229" x="55.4438" y="487.5894">all Listeners notified?</text><ellipse cx="114.1553" cy="526.7813" fill="none" rx="11" ry="11" style="stroke:#222222;stroke-width:1.0;"/><ellipse cx="114.1553" cy="526.7813" fill="#222222" rx="6" ry="6" style="stroke:#222222;stroke-width:1.0;"/><line style="stroke:#181818;stroke-width:1.0;" x1="114.1553" x2="114.1553" y1="30" y2="50"/><polygon fill="#181818" points="110.1553,40,114.1553,50,118.1553,40,114.1553,44" style="stroke:#181818;stroke-width:1.0;"/><line style="stroke:#181818;stroke-width:1.0;" x1="114.1553" x2="114.1553" y1="83.9688" y2="103.9688"/><polygon fill="#181818" points="110.1553,93.9688,114.1553,103.9688,118.1553,93.9688,114.1553,97.9688" style="stroke:#181818;stroke-width:1.0;"/><line style="stroke:#181818;stroke-width:1.0;" x1="114.1553" x2="114.1553" y1="137.9375" y2="157.9375"/><polygon fill="#181818" points="110.1553,147.9375,114.1553,157.9375,118.1553,147.9375,114.1553,151.9375" style="stroke:#181818;stroke-width:1.0;"/><line style="stroke:#181818;stroke-width:1.0;" x1="114.1553" x2="114.1553" y1="191.9063" y2="211.9063"/><polygon fill="#181818" points="110.1553,201.9063,114.1553,211.9063,118.1553,201.9063,114.1553,205.9063" style="stroke:#181818;stroke-width:1.0;"/><line style="stroke:#181818;stroke-width:1.0;" x1="114.1553" x2="114.1553" y1="245.875" y2="265.875"/><polygon fill="#181818" points="110.1553,255.875,114.1553,265.875,118.1553,255.875,114.1553,259.875" style="stroke:#181818;stroke-width:1.0;"/><line style="stroke:#181818;stroke-width:1.0;" x1="114.1553" x2="114.1553" y1="299.8438" y2="319.8438"/><polygon fill="#181818" points="110.1553,309.8438,114.1553,319.8438,118.1553,309.8438,114.1553,313.8438" style="stroke:#181818;stroke-width:1.0;"/><line style="stroke:#181818;stroke-width:1.0;" x1="114.1553" x2="114.1553" y1="397.8125" y2="417.8125"/><polygon fill="#181818" points="110.1553,407.8125,114.1553,417.8125,118.1553,407.8125,114.1553,411.8125" style="stroke:#181818;stroke-width:1.0;"/><line style="stroke:#181818;stroke-width:1.0;" x1="184.8667" x2="229.3105" y1="483.7813" y2="483.7813"/><polygon fill="#181818" points="225.3105,444.7969,229.3105,434.7969,233.3105,444.7969,229.3105,440.7969" style="stroke:#181818;stroke-width:1.0;"/><line style="stroke:#181818;stroke-width:1.0;" x1="229.3105" x2="229.3105" y1="385.8125" y2="483.7813"/><line style="stroke:#181818;stroke-width:1.0;" x1="229.3105" x2="126.1553" y1="385.8125" y2="385.8125"/><polygon fill="#181818" points="136.1553,381.8125,126.1553,385.8125,136.1553,389.8125,132.1553,385.8125" style="stroke:#181818;stroke-width:1.0;"/><line style="stroke:#181818;stroke-width:1.0;" x1="114.1553" x2="114.1553" y1="451.7813" y2="471.7813"/><polygon fill="#181818" points="110.1553,461.7813,114.1553,471.7813,118.1553,461.7813,114.1553,465.7813" style="stroke:#181818;stroke-width:1.0;"/><line style="stroke:#181818;stroke-width:1.0;" x1="114.1553" x2="114.1553" y1="353.8125" y2="373.8125"/><polygon fill="#181818" points="110.1553,363.8125,114.1553,373.8125,118.1553,363.8125,114.1553,367.8125" style="stroke:#181818;stroke-width:1.0;"/><line style="stroke:#181818;stroke-width:1.0;" x1="114.1553" x2="114.1553" y1="495.7813" y2="515.7813"/><polygon fill="#181818" points="110.1553,505.7813,114.1553,515.7813,118.1553,505.7813,114.1553,509.7813" style="stroke:#181818;stroke-width:1.0;"/><!--SRC=[VOun3i8m40Hxl-9AyeMaGAG6YIyS-C0dMObrUr6-ZukOW8HeTsT72sVpq5-NMrOaCRgRi4iSGdzMk4nY-CXsZcC4DOHEVxgnTXS1-2a_JTFi-b01SSxl5OPWKYgy_w2bn3e6hUg9DcF3Q4sQXGvVZgQEnox0v_82]--></g></svg>